<svg id="Layer_1" data-name="Layer 1" xmlns="http://www.w3.org/2000/svg" viewBox="0 0 133.94 67.9"><defs><style>.cls-1{fill:#ee7623;}.cls-2{fill:#99a4ad;}.cls-3{fill:#005da6;}</style></defs><path class="cls-1" d="M23.52,56a1,1,0,1,1-1.3-.69,1,1,0,0,1,1.3.69M16.8,22.54a3.23,3.23,0,1,0-4-2.14,3.23,3.23,0,0,0,4,2.14m-.09,4.3a2.86,2.86,0,1,0-1.9,3.57,2.87,2.87,0,0,0,1.9-3.57m-.6,7.69a2.5,2.5,0,1,0-1.66,3.12,2.5,2.5,0,0,0,1.66-3.12M17,41.4a2.13,2.13,0,1,0-1.42,2.65A2.13,2.13,0,0,0,17,41.4m1.84,5.93a1.77,1.77,0,1,0-1.17,2.21,1.77,1.77,0,0,0,1.17-2.21m2.34,4.73a1.4,1.4,0,1,0-.93,1.75,1.4,1.4,0,0,0,.93-1.75M21,14.74a3.59,3.59,0,1,0-4.49-2.38A3.59,3.59,0,0,0,21,14.74m1.85-9.48A4,4,0,1,0,25.45.31a4,4,0,0,0-2.62,5" transform="translate(-0.25 -0.06)"/><path class="cls-2" d="M21.45,41.76a1,1,0,1,1-.55-1.36,1,1,0,0,1,.55,1.36M37.78,11.83A3.23,3.23,0,1,0,36.07,7.6a3.22,3.22,0,0,0,1.71,4.23m-2.84,3.24a2.86,2.86,0,1,0-3.75,1.52,2.85,2.85,0,0,0,3.75-1.52m-5.39,5.5a2.5,2.5,0,1,0-3.28,1.33,2.51,2.51,0,0,0,3.28-1.33m-3.77,5.81A2.14,2.14,0,1,0,23,27.51a2.14,2.14,0,0,0,2.8-1.13m-2.4,5.73a1.77,1.77,0,1,0-2.32.94,1.77,1.77,0,0,0,2.32-.94m-1.25,5.13a1.41,1.41,0,1,0-1.85.74,1.4,1.4,0,0,0,1.85-.74M46,8.55a3.59,3.59,0,1,0-1.9-4.71A3.6,3.6,0,0,0,46,8.55m7.51-6.08A4,4,0,1,0,58.7.37a4,4,0,0,0-5.19,2.1" transform="translate(-0.25 -0.06)"/><path class="cls-3" d="M35.3,66a1,1,0,1,1-1.44.31A1,1,0,0,1,35.3,66M8.66,44.76a3.23,3.23,0,1,0-4.47,1,3.23,3.23,0,0,0,4.47-1m2.7,3.35a2.86,2.86,0,1,0,.84,4,2.87,2.87,0,0,0-.84-4m4.48,6.27a2.5,2.5,0,1,0,.74,3.46,2.5,2.5,0,0,0-.74-3.46m5.07,4.72a2.13,2.13,0,1,0,.63,2.95,2.13,2.13,0,0,0-.63-2.95m5.23,3.36a1.77,1.77,0,1,0,.52,2.45,1.78,1.78,0,0,0-.52-2.45M31,64.58a1.41,1.41,0,1,0,.41,2,1.41,1.41,0,0,0-.41-2M6.86,36.1a3.59,3.59,0,1,0-5,1.06,3.59,3.59,0,0,0,5-1.06M2.18,27.64A4,4,0,1,0,1,22.16a3.95,3.95,0,0,0,1.17,5.48m44-6.95c.54-1.49.72-1.76,1-1.76s.45.23,1,1.62c.68,1.71,7.75,20.32,10.5,27.17,1.62,4,2.93,4.73,3.87,5a5.68,5.68,0,0,0,1.8.27c.27,0,.45,0,.45.27s-.41.36-.9.36c-.68,0-4,0-7.07-.09-.86-.05-1.35-.05-1.35-.32s.13-.27.31-.32.54-.5.27-1.22L51.9,40.61a.4.4,0,0,0-.41-.27H41.8a.46.46,0,0,0-.45.36l-2.7,8a9.7,9.7,0,0,0-.63,3C38,52.6,39,53,39.73,53h.45c.32,0,.45.09.45.27s-.27.36-.68.36c-1.08,0-3-.14-3.52-.14s-3,.14-5.09.14c-.58,0-.86-.09-.86-.36s.18-.27.41-.27.95,0,1.31-.09c2.07-.27,3-2,3.79-4.24Zm4.69,18c.23,0,.23-.14.18-.32L46.81,26.23c-.23-.68-.45-.68-.68,0l-4,12.17c-.09.23,0,.32.13.32Zm52.68-18.57c-.09-.86-.23-1.22-.54-1.22s-.5.32-.68.72L89.12,48,75.34,19.61c-.22-.5-.41-.68-.68-.68s-.45.32-.5.81L70.92,49.12c-.18,1.71-.32,3.47-1.8,3.74a5.61,5.61,0,0,1-1.35.14c-.23,0-.45.09-.45.23,0,.32.32.41.77.41,1.22,0,3.38-.13,3.79-.13s2.52.13,4.19.13c.54,0,.81-.09.81-.41,0-.13-.18-.23-.36-.23a7.7,7.7,0,0,1-1.71-.23,1.43,1.43,0,0,1-1.17-1.4c0-.77,0-1.58,0-2.3l1.8-20.91h.18c.5,1.22,5.54,12,6,12.84.23.45,4.1,8.25,5.27,10.45.86,1.62,1.08,2.07,1.4,2.07s.54-.4,1.49-2.39l11-23.43H101l2.16,23.39c.09.81,0,1.58-.18,1.62s-.32.13-.32.32.23.36,1.26.45c1.67.13,6.53.18,7.52.18.54,0,1-.14,1-.41S112.2,53,112,53a9.69,9.69,0,0,1-2.93-.41c-1.94-.63-2.25-3.15-2.43-4.78Zm13.93,32.9a13.7,13.7,0,0,0,6,1.22,11.84,11.84,0,0,0,6.8-1.89,9.33,9.33,0,0,0,3.83-7.48c0-3.61-1.26-6.4-6.58-10.59l-1.26-1c-4.33-3.38-5.5-5-5.5-7.57,0-3.29,2.43-5.23,5.54-5.23,4.15,0,5.36,1.89,5.63,2.39a8.13,8.13,0,0,1,.59,2.25c0,.36.09.59.36.59s.32-.32.32-1c0-3.06.18-4.55.18-4.78s-.09-.32-.45-.32a7.32,7.32,0,0,1-1.58-.22,17.5,17.5,0,0,0-4.19-.45c-5.72,0-9.33,3.29-9.33,8.11,0,3.06,1.08,5.86,5.86,9.78l2,1.67c3.88,3.2,5.18,5,5.18,8.11,0,2.88-2.12,6-6.44,6-3,0-6-1.26-6.67-4.6a7.67,7.67,0,0,1-.14-1.67c0-.36,0-.5-.32-.5s-.31.23-.36.72c0,.72-.23,2.52-.23,4.78,0,1.22.06,1.4.69,1.72" transform="translate(-0.25 -0.06)"/></svg>