<?xml version="1.0" encoding="utf-8"?>
<!-- Generator: Adobe Illustrator 24.1.1, SVG Export Plug-In . SVG Version: 6.00 Build 0)  -->
<svg version="1.1" id="Layer_1" xmlns="http://www.w3.org/2000/svg" xmlns:xlink="http://www.w3.org/1999/xlink" x="0px" y="0px"
	 viewBox="0 0 237.83 210" style="enable-background:new 0 0 237.83 210;" xml:space="preserve">
<style type="text/css">
	.st0{fill:#FFFFFF;stroke:#FFFFFF;stroke-width:2.247;}
	.st1{fill:#FFFFFF;}
</style>
<rect x="0.32" y="-2.15" width="238.48" height="214.63"/>
<g>
	<g>
		<g>
			<path class="st0" d="M54.71,164.56c0,2.2-0.31,4.22-0.95,6.04c-0.64,1.82-1.54,3.37-2.69,4.63c-1.08,1.2-2.35,2.13-3.81,2.79
				c-1.46,0.66-3.01,0.98-4.64,0.98c-1.42,0-2.71-0.15-3.86-0.46c-1.15-0.31-2.33-0.79-3.52-1.43v11.38h-4.62v-37.21h4.62v2.86
				c1.23-1.02,2.6-1.87,4.13-2.56c1.53-0.69,3.16-1.04,4.89-1.04c3.3,0,5.87,1.24,7.71,3.71C53.8,156.73,54.71,160.16,54.71,164.56z
				 M49.93,164.68c0-3.28-0.56-5.73-1.69-7.36c-1.12-1.63-2.85-2.44-5.18-2.44c-1.32,0-2.65,0.29-3.99,0.85
				c-1.33,0.57-2.61,1.31-3.84,2.25v15.43c1.3,0.58,2.42,0.98,3.36,1.19c0.94,0.21,2,0.32,3.19,0.32c2.56,0,4.55-0.86,5.99-2.58
				C49.21,170.61,49.93,168.06,49.93,164.68z"/>
			<path class="st0" d="M85.95,178.43h-4.62v-15.46c0-1.25-0.07-2.42-0.22-3.51c-0.15-1.09-0.41-1.95-0.8-2.56
				c-0.41-0.68-0.99-1.19-1.76-1.52c-0.76-0.33-1.76-0.5-2.98-0.5c-1.25,0-2.56,0.31-3.93,0.92c-1.37,0.62-2.68,1.4-3.93,2.36v20.27
				h-4.62v-37.86h4.62v13.74c1.44-1.18,2.92-2.11,4.45-2.77c1.53-0.66,3.11-1,4.72-1c2.95,0,5.2,0.88,6.75,2.65
				c1.55,1.77,2.32,4.31,2.32,7.63V178.43z"/>
			<path class="st0" d="M119.73,151.28l-16,37.21h-4.93l5.1-11.34l-10.92-25.87H98l8.41,20.13l8.48-20.13H119.73z"/>
			<path class="st0" d="M146.51,170.52c0,2.48-1.03,4.51-3.1,6.1c-2.07,1.59-4.89,2.38-8.46,2.38c-2.03,0-3.88-0.24-5.57-0.72
				c-1.69-0.48-3.1-1-4.25-1.57v-5.15h0.24c1.44,1.1,3.05,1.98,4.82,2.63c1.77,0.65,3.47,0.97,5.09,0.97c2.01,0,3.59-0.32,4.73-0.98
				c1.13-0.65,1.71-1.67,1.71-3.08c0-1.07-0.31-1.88-0.93-2.43c-0.62-0.55-1.8-1.03-3.56-1.41c-0.65-0.14-1.5-0.31-2.55-0.51
				c-1.05-0.2-2.01-0.41-2.87-0.63c-2.39-0.63-4.09-1.56-5.09-2.79c-1-1.22-1.5-2.72-1.5-4.51c0-1.11,0.23-2.17,0.7-3.16
				c0.47-0.99,1.17-1.87,2.12-2.65c0.92-0.76,2.08-1.36,3.5-1.8c1.42-0.45,3-0.67,4.75-0.67c1.64,0,3.29,0.2,4.97,0.6
				c1.67,0.4,3.07,0.88,4.18,1.45v4.9h-0.25c-1.17-0.87-2.6-1.6-4.27-2.2c-1.68-0.6-3.32-0.9-4.93-0.9c-1.67,0-3.09,0.32-4.25,0.97
				c-1.16,0.64-1.73,1.6-1.73,2.87c0,1.12,0.35,1.96,1.05,2.53c0.68,0.57,1.79,1.03,3.32,1.39c0.84,0.19,1.79,0.39,2.84,0.59
				c1.05,0.19,1.92,0.37,2.63,0.53c2.13,0.49,3.77,1.32,4.93,2.5C145.93,166.96,146.51,168.55,146.51,170.52z"/>
			<path class="st0" d="M158.91,178.43h-4.62v-27.15h4.62V178.43z"/>
			<path class="st0" d="M189.46,176.68c-1.53,0.73-2.98,1.3-4.36,1.71c-1.37,0.41-2.84,0.61-4.38,0.61c-1.97,0-3.78-0.29-5.42-0.87
				c-1.65-0.57-3.05-1.45-4.23-2.62c-1.19-1.17-2.11-2.65-2.76-4.43c-0.65-1.79-0.98-3.88-0.98-6.26c0-4.45,1.22-7.94,3.67-10.48
				c2.45-2.53,5.69-3.8,9.71-3.8c1.56,0,3.09,0.22,4.6,0.66c1.51,0.44,2.88,0.97,4.14,1.6v5.09h-0.24c-1.4-1.08-2.84-1.9-4.33-2.48
				c-1.49-0.58-2.94-0.87-4.35-0.87c-2.6,0-4.66,0.87-6.16,2.61c-1.5,1.74-2.25,4.29-2.25,7.66c0,3.27,0.73,5.78,2.21,7.54
				c1.47,1.76,3.54,2.63,6.21,2.63c0.92,0,1.87-0.12,2.83-0.36c0.96-0.24,1.82-0.56,2.59-0.94c0.66-0.34,1.29-0.7,1.88-1.07
				c0.59-0.38,1.05-0.71,1.39-0.98h0.24V176.68z"/>
			<path class="st0" d="M216.14,170.52c0,2.48-1.03,4.51-3.1,6.1c-2.07,1.59-4.89,2.38-8.46,2.38c-2.03,0-3.88-0.24-5.57-0.72
				c-1.69-0.48-3.11-1-4.25-1.57v-5.15H195c1.45,1.1,3.05,1.98,4.83,2.63c1.77,0.65,3.47,0.97,5.09,0.97c2.01,0,3.58-0.32,4.72-0.98
				c1.14-0.65,1.71-1.67,1.71-3.08c0-1.07-0.31-1.88-0.93-2.43c-0.62-0.55-1.8-1.03-3.57-1.41c-0.65-0.14-1.5-0.31-2.55-0.51
				c-1.05-0.2-2.01-0.41-2.87-0.63c-2.39-0.63-4.09-1.56-5.09-2.79c-1-1.22-1.5-2.72-1.5-4.51c0-1.11,0.23-2.17,0.7-3.16
				c0.46-0.99,1.17-1.87,2.12-2.65c0.92-0.76,2.08-1.36,3.5-1.8c1.41-0.45,3-0.67,4.75-0.67c1.63,0,3.29,0.2,4.97,0.6
				c1.68,0.4,3.07,0.88,4.18,1.45v4.9h-0.24c-1.18-0.87-2.6-1.6-4.28-2.2c-1.67-0.6-3.32-0.9-4.93-0.9c-1.67,0-3.09,0.32-4.25,0.97
				c-1.15,0.64-1.73,1.6-1.73,2.87c0,1.12,0.35,1.96,1.05,2.53c0.68,0.57,1.79,1.03,3.32,1.39c0.85,0.19,1.8,0.39,2.84,0.59
				c1.05,0.19,1.93,0.37,2.63,0.53c2.13,0.49,3.78,1.32,4.93,2.5C215.56,166.96,216.14,168.55,216.14,170.52z"/>
		</g>
	</g>
	<g>
		<g>
			<path class="st1" d="M63.12,44.36h3.08l22.61,57.08c0.9,2.3,2.76,3.44,5.56,3.44h1.95v3.21H71.21v-3.21h2
				c2.61,0,4.45-0.28,5.53-0.84c0.74-0.39,1.11-0.99,1.11-1.8c0-0.48-0.1-0.98-0.3-1.51l-5.22-13.18H49.45l-3.03,7.55
				c-0.77,2.01-1.15,3.61-1.15,4.78c0,1.37,0.64,2.55,1.94,3.53c1.3,0.98,3.18,1.47,5.65,1.47h2.13v3.21H32.13v-3.21
				c2.45,0,4.38-0.52,5.81-1.57c1.42-1.05,2.73-3.04,3.93-5.98L63.12,44.36z M61.97,56.35L50.74,84.34h22.32L61.97,56.35z"/>
		</g>
	</g>
	<g>
		<path class="st1" d="M185.93,50.88l3.85-5.59h2.97l0.28,22.79h-2.96c-1.75-6.94-4.34-12.01-7.77-15.2
			c-3.43-3.19-7.38-4.79-11.84-4.79c-3.72,0-6.77,1.11-9.15,3.32c-2.37,2.21-3.55,4.91-3.55,8.11c0,1.99,0.45,3.73,1.37,5.23
			c0.91,1.5,2.26,2.72,4.07,3.65c1.81,0.94,5.2,1.95,10.18,3.04c6.99,1.55,11.9,3.1,14.74,4.65c2.84,1.55,4.95,3.5,6.35,5.85
			c1.4,2.35,2.1,5.1,2.1,8.26c0,5.63-1.92,10.29-5.76,13.99c-3.84,3.7-8.79,5.55-14.86,5.55c-6.53,0-12.2-2.1-17.02-6.29l-4.83,5.87
			h-2.96V85.13h2.96c1.2,6.66,3.87,11.91,8.03,15.76c4.16,3.85,8.84,5.77,14.06,5.77c4.21,0,7.65-1.23,10.31-3.68
			c2.67-2.46,4-5.44,4-8.95c0-1.99-0.5-3.74-1.49-5.24c-1-1.5-2.57-2.77-4.72-3.8c-2.15-1.03-6.39-2.28-12.71-3.74
			c-6.95-1.64-11.69-3.47-14.24-5.49c-3.58-2.86-5.37-6.92-5.37-12.17c0-5.47,1.77-9.96,5.32-13.46c3.55-3.5,8.09-5.24,13.63-5.24
			c2.65,0,5.18,0.46,7.57,1.39C180.89,47.19,183.37,48.72,185.93,50.88z"/>
	</g>
	<g>
		<path class="st1" d="M96.24,45.53h31.13c7.03,0,12.39,1.58,16.09,4.74c3.7,3.16,5.55,7.3,5.55,12.41c0,5.11-1.71,9-5.12,11.69
			c-4.69,3.7-10.47,5.55-17.35,5.55h-11.25v21.22c0,1.23,0.3,2.11,0.89,2.65c0.79,0.68,1.84,1.01,3.17,1.01h7.09v3.21h-30.2v-3.21
			h6.36c1.26,0,2.18-0.24,2.77-0.74c0.59-0.49,0.88-1.16,0.88-2V52.33c0-1.27-0.37-2.18-1.12-2.74c-0.74-0.56-2.15-0.84-4.21-0.84
			h-4.69V45.53z M115.29,76.7h8.54c5.41,0,9.32-1.12,11.71-3.35c2.39-2.23,3.59-5.92,3.59-11.07c0-3.6-0.54-6.35-1.62-8.28
			c-1.08-1.93-2.66-3.35-4.74-4.28c-2.08-0.93-5.5-1.39-10.26-1.39c-3.15,0-5.14,0.3-5.97,0.88c-0.84,0.59-1.25,1.62-1.25,3.08V76.7
			z"/>
	</g>
	<path class="st1" d="M69.5,93.36C38.05,70.45,16.26,43.22,23.53,29.68c6.29-11.73,29.76-12.56,59.8-4.12
		c-34.63-10.78-62.2-10.61-69.27,2.57C6.02,43.12,31.01,73.36,67.19,98.54c8.42,5.58,17.59,10.96,27.33,16.08
		c55.36,29.17,108.54,37.35,118.78,18.28c2.79-5.2,2.1-11.88-1.49-19.43c2.19,5.87,2.33,11.08,0.09,15.26
		c-9.68,18.04-59.98,10.3-112.34-17.28C88.64,105.7,78.63,99.67,69.5,93.36L69.5,93.36z"/>
	<g>
		<path class="st1" d="M147.52,134.84c0-4.83,3.95-8.75,8.83-8.75c4.88,0,8.83,3.92,8.83,8.75c0,4.83-3.96,8.75-8.83,8.75
			C151.47,143.59,147.52,139.68,147.52,134.84z"/>
	</g>
</g>
<g>
	<path class="st1" d="M216.37,147v-7.73h-2.76v-1.57h7.39v1.57h-2.75V147H216.37z"/>
	<path class="st1" d="M222.19,147v-9.31h2.81l1.69,6.35l1.67-6.35h2.82V147h-1.75v-7.33l-1.85,7.33h-1.81l-1.84-7.33V147H222.19z"/>
</g>
</svg>
