<svg id="Layer_1" data-name="Layer 1" xmlns="http://www.w3.org/2000/svg" viewBox="0 0 619.13 245.69"><defs><style>.cls-1,.cls-2{fill:#fff;}.cls-2{font-size:32.48px;font-family:Interstate-BoldCondensed, Interstate BoldCondensed;font-weight:700;letter-spacing:-0.01em;}.cls-3{letter-spacing:-0.08em;}.cls-4{letter-spacing:0em;}.cls-5{letter-spacing:-0.01em;}.cls-6{letter-spacing:-0.08em;}.cls-7{letter-spacing:0em;}.cls-8{letter-spacing:0em;}.cls-9{letter-spacing:-0.01em;}.cls-10,.cls-11,.cls-12{fill:none;stroke:#fff;}.cls-10{stroke-width:2.83px;}.cls-11{stroke-width:1.42px;}.cls-12{stroke-width:1.33px;}</style></defs><path class="cls-1" d="M427.51,371.12V308.58c0-9.76.25-32.38.49-38.37-2,6.21-9.31,28.83-13.24,40.14l-22.09,61.48-22.05-61.48c-3.92-11.31-11.28-33.93-13.24-40.14.25,6,.49,28.61.49,38.37v62.54H335.31V215.87h25.26l22.07,64.54c3.19,9.31,9.07,28.39,10.54,33.93,1.72-5.76,7.61-25.5,10.79-34.6L426,215.87h25V371.12Z" transform="translate(-78.78 -185.08)"/><path class="cls-1" d="M525.94,371.12l-9.2-41.51H482.63l-9,41.51H450.32L488.92,214h22.66L550,371.12Zm-19.52-88.86c-2.24-10.33-5.61-28.5-6.73-34.34-1.12,5.84-4.49,23.79-6.73,34.34l-5.84,26.48h25.14Z" transform="translate(-78.78 -185.08)"/><path class="cls-1" d="M619.83,371.12l-9.2-41.51H576.52l-9,41.51H544.2L582.8,214h22.66l38.38,157.08ZM600.3,282.26c-2.24-10.33-5.61-28.5-6.73-34.34-1.12,5.84-4.49,23.79-6.73,34.34L581,308.74h25.14Z" transform="translate(-78.78 -185.08)"/><text class="cls-2" transform="translate(51.07 228.93)">M<tspan class="cls-3" x="25.76" y="0">A</tspan><tspan class="cls-4" x="43.1" y="0">THE</tspan><tspan class="cls-5" x="96.31" y="0">M</tspan><tspan class="cls-6" x="122.06" y="0">A</tspan><tspan class="cls-7" x="139.41" y="0">TI</tspan><tspan class="cls-8" x="163.25" y="0">C</tspan><tspan class="cls-4" x="182.19" y="0">AL ASSOCI</tspan><tspan class="cls-3" x="324.88" y="0">A</tspan><tspan class="cls-7" x="342.22" y="0">TION OF </tspan><tspan class="cls-9" x="461.59" y="0">A</tspan><tspan class="cls-7" x="481.31" y="0">MERI</tspan><tspan class="cls-7" x="548.51" y="0">-</tspan></text><polygon class="cls-10" points="54.02 1.42 159.29 1.42 211.69 92.52 159.77 184.57 54.03 184.57 1.63 93 54.02 1.42"/><polyline class="cls-10" points="1.63 93 41.28 93 138.76 35.88 159.29 1.42"/><polyline class="cls-10" points="159.77 184.57 138.76 149.16 41.28 92.29"/><polyline class="cls-10" points="53.32 183.86 138.76 149.16 139.18 37.47 211.69 92.52 138.76 35.88 54.48 2.26 41.28 92.29 54.03 184.57"/><line class="cls-10" x1="211.69" y1="92.52" x2="138.76" y2="149.16"/><polygon class="cls-1" points="54.74 183.86 138.76 149.88 159.29 183.86 54.74 183.86"/><line class="cls-11" x1="21.53" y1="93.67" x2="27.35" y2="137.85"/><line class="cls-11" x1="16.47" y1="93.67" x2="20.85" y2="126.87"/><line class="cls-11" x1="11.32" y1="93.67" x2="14.38" y2="116.87"/><line class="cls-11" x1="6.17" y1="93.42" x2="7.63" y2="104.5"/><line class="cls-11" x1="26.5" y1="93.67" x2="33.87" y2="149.53"/><line class="cls-11" x1="31.56" y1="93.67" x2="40.22" y2="159.28"/><line class="cls-11" x1="36.63" y1="93.67" x2="46.78" y2="170.68"/><line class="cls-11" x1="53.4" y1="179.26" x2="132.87" y2="145.89"/><line class="cls-11" x1="53.4" y1="173.74" x2="127.83" y2="142.53"/><line class="cls-11" x1="51" y1="169.18" x2="121.82" y2="139.41"/><line class="cls-11" x1="51" y1="162.94" x2="116.3" y2="135.57"/><line class="cls-11" x1="49.8" y1="157.9" x2="111.26" y2="132.2"/><line class="cls-11" x1="49.32" y1="152.61" x2="105.26" y2="129.08"/><line class="cls-11" x1="48.36" y1="147.57" x2="99.86" y2="125.36"/><line class="cls-11" x1="47.63" y1="136.28" x2="87.97" y2="119"/><line class="cls-11" x1="46.19" y1="130.77" x2="81.73" y2="115.64"/><line class="cls-11" x1="45.47" y1="125.49" x2="77.52" y2="112.16"/><line class="cls-11" x1="44.75" y1="119.96" x2="70.68" y2="109.16"/><line class="cls-11" x1="43.32" y1="114.92" x2="65.17" y2="105.56"/><line class="cls-11" x1="43.55" y1="108.92" x2="58.92" y2="102.19"/><line class="cls-11" x1="42.6" y1="103.87" x2="53.16" y2="99.07"/><line class="cls-11" x1="41.39" y1="98.38" x2="48.12" y2="95.68"/><line class="cls-11" x1="47.63" y1="142.04" x2="93.73" y2="122.12"/><line class="cls-11" x1="207.8" y1="90.85" x2="139.76" y2="143.78"/><line class="cls-11" x1="204.89" y1="87.55" x2="139.35" y2="138.21"/><line class="cls-11" x1="201.77" y1="84.91" x2="139.35" y2="132.92"/><line class="cls-11" x1="197.45" y1="82.75" x2="139.83" y2="127.64"/><line class="cls-11" x1="193.85" y1="79.86" x2="139.35" y2="122.36"/><line class="cls-11" x1="190.73" y1="76.98" x2="139.83" y2="116.36"/><line class="cls-11" x1="187.84" y1="73.86" x2="139.83" y2="111.32"/><line class="cls-11" x1="180.64" y1="68.82" x2="139.53" y2="100.83"/><line class="cls-11" x1="177.28" y1="65.95" x2="139.78" y2="94.73"/><line class="cls-11" x1="173.92" y1="63.3" x2="139.88" y2="89.81"/><line class="cls-11" x1="169.6" y1="61.14" x2="140.07" y2="83.95"/><line class="cls-11" x1="156.16" y1="50.1" x2="139.58" y2="62.34"/><line class="cls-11" x1="159.75" y1="52.98" x2="139.83" y2="67.86"/><line class="cls-11" x1="163.36" y1="55.38" x2="139.58" y2="73.62"/><line class="cls-11" x1="166.42" y1="58.01" x2="139.58" y2="78.91"/><line class="cls-11" x1="152.49" y1="47.76" x2="139.11" y2="57.85"/><line class="cls-11" x1="148.81" y1="44.73" x2="139.45" y2="51.59"/><line class="cls-11" x1="145.33" y1="41.96" x2="139.68" y2="46.49"/><line class="cls-11" x1="184.24" y1="71.47" x2="139.9" y2="105.69"/><line class="cls-11" x1="46.19" y1="89.95" x2="139.11" y2="143.49"/><line class="cls-11" x1="51.18" y1="88.27" x2="139.06" y2="139.17"/><line class="cls-11" x1="55.07" y1="85.39" x2="138.39" y2="133.65"/><line class="cls-11" x1="58.92" y1="82.99" x2="138.39" y2="128.36"/><line class="cls-11" x1="62.53" y1="80.11" x2="138.15" y2="124.04"/><line class="cls-11" x1="67.33" y1="78.19" x2="138.39" y2="119"/><line class="cls-11" x1="71.17" y1="75.79" x2="138.15" y2="113.72"/><line class="cls-11" x1="75.48" y1="72.66" x2="138.39" y2="109.16"/><line class="cls-11" x1="80.29" y1="70.5" x2="138.39" y2="103.87"/><line class="cls-11" x1="84.61" y1="67.86" x2="138.39" y2="98.83"/><line class="cls-11" x1="88.69" y1="65.7" x2="138.15" y2="94.03"/><line class="cls-11" x1="92.29" y1="63.06" x2="138.15" y2="89.23"/><line class="cls-11" x1="97.33" y1="60.18" x2="138.39" y2="84.67"/><line class="cls-11" x1="101.65" y1="57.54" x2="138.15" y2="78.91"/><line class="cls-11" x1="105.26" y1="55.38" x2="138.63" y2="74.58"/><line class="cls-11" x1="110.06" y1="53.22" x2="138.15" y2="69.3"/><line class="cls-11" x1="114.38" y1="50.58" x2="137.91" y2="64.26"/><line class="cls-11" x1="118.46" y1="48.42" x2="138.63" y2="59.7"/><line class="cls-11" x1="123.51" y1="45.53" x2="138.39" y2="54.66"/><line class="cls-11" x1="126.86" y1="42.89" x2="138.39" y2="49.62"/><path class="cls-11" d="M209.49,225.57s8.64,5,7.93,4.81" transform="translate(-78.78 -185.08)"/><path class="cls-12" d="M272.81,360.44a8.91,8.91,0,1,1-8.91-8.91A8.89,8.89,0,0,1,272.81,360.44Z" transform="translate(-78.78 -185.08)"/><path class="cls-1" d="M262,365.77h-2.49V355.1H264a4.87,4.87,0,0,1,2.74.54,3.19,3.19,0,0,1,1.36,2.66,2.86,2.86,0,0,1-1.86,2.75l2,4.72h-2.77l-1.63-4.22H262Zm0-6.06h1.37a2.9,2.9,0,0,0,1.52-.21,1.45,1.45,0,0,0,.62-1.22,1.32,1.32,0,0,0-.6-1.08,3.25,3.25,0,0,0-1.61-.2H262Z" transform="translate(-78.78 -185.08)"/><line class="cls-11" x1="143.68" y1="145.89" x2="163.36" y2="178.29"/><line class="cls-11" x1="147.4" y1="142.16" x2="166.72" y2="173.49"/><line class="cls-11" x1="151.78" y1="139.53" x2="169.77" y2="168.69"/><line class="cls-11" x1="156.17" y1="136.89" x2="172.65" y2="163.39"/><line class="cls-11" x1="160.54" y1="132.91" x2="175.43" y2="157.05"/><line class="cls-11" x1="164.38" y1="129.07" x2="178.68" y2="152.29"/><line class="cls-11" x1="169.09" y1="125.83" x2="181.75" y2="146.36"/><line class="cls-11" x1="172.69" y1="121.75" x2="184.85" y2="141.32"/><line class="cls-11" x1="177.74" y1="118.63" x2="187.95" y2="135.82"/><line class="cls-11" x1="181.82" y1="115.99" x2="190.97" y2="131.48"/><line class="cls-11" x1="186.37" y1="112.87" x2="194.09" y2="125.47"/><line class="cls-11" x1="190.22" y1="109.26" x2="197.21" y2="120.43"/><line class="cls-11" x1="194.54" y1="105.91" x2="199.97" y2="114.18"/><line class="cls-11" x1="199.1" y1="103.03" x2="202.95" y2="108.69"/><line class="cls-11" x1="202.46" y1="98.7" x2="206.12" y2="103.51"/><line class="cls-11" x1="142.69" y1="38.96" x2="162.23" y2="6.47"/><line class="cls-11" x1="145.51" y1="42.15" x2="164.7" y2="10.73"/><line class="cls-11" x1="149.39" y1="44.1" x2="167.25" y2="14.86"/><line class="cls-11" x1="153.53" y1="45.95" x2="170.07" y2="18.87"/><line class="cls-11" x1="156.74" y1="48.99" x2="171.52" y2="24.78"/><line class="cls-11" x1="159.95" y1="52.15" x2="174.72" y2="27.95"/><line class="cls-11" x1="164.02" y1="53.94" x2="176.59" y2="33.36"/><line class="cls-11" x1="167.12" y1="57.09" x2="179.69" y2="36.51"/><line class="cls-11" x1="171.12" y1="59.54" x2="181.64" y2="41.6"/><line class="cls-11" x1="174.7" y1="62.16" x2="183.78" y2="46.63"/><line class="cls-11" x1="177.78" y1="64.54" x2="186.66" y2="50.43"/><line class="cls-11" x1="181.56" y1="67.28" x2="188.9" y2="54.77"/><line class="cls-11" x1="184.83" y1="70.03" x2="191.37" y2="59.51"/><line class="cls-11" x1="187.84" y1="73.03" x2="193.75" y2="63.59"/><line class="cls-11" x1="191.63" y1="75.51" x2="196.24" y2="68.06"/><line class="cls-11" x1="194.5" y1="79.03" x2="199.11" y2="71.58"/><line class="cls-11" x1="198.41" y1="81.65" x2="202.46" y2="75.64"/><line class="cls-11" x1="201.68" y1="84.26" x2="204.43" y2="80.08"/></svg>