<svg id="Layer_1" data-name="Layer 1" xmlns="http://www.w3.org/2000/svg" viewBox="0 0 162.94 51.83"><defs><style>.cls-1,.cls-2{fill:#fff;}.cls-2{stroke:#fff;stroke-width:0.15px;}</style></defs><polygon class="cls-1" points="47.67 10.51 49.53 0 38.05 0 40.35 10.51 47.67 10.51"/><path class="cls-1" d="M222.55,100.58a3.05,3.05,0,0,1-3-3.09V75.07a3.11,3.11,0,0,0-3-3.09h-9.27a3,3,0,0,0-2.56,1.85c0-1.7-.88-1.84-2.56-1.85h-9.27a3.72,3.72,0,0,0-2.56,1.5V72h-7.24V97.49a3.09,3.09,0,0,1-3.09,3.09h-7.41a3.11,3.11,0,0,1-3.09-3.09V75.07a3.05,3.05,0,0,0-3-3.09h-25v7.33h17.75a3,3,0,0,1,3,3v.79a3.09,3.09,0,0,1-3.09,3.09H141.32a3,3,0,0,0-3,3v8.29a3.14,3.14,0,0,1-3.09,3.09h-3.09a3.07,3.07,0,0,1-3-3.09V72h-7.33V97.49a3,3,0,0,1-3,3.09l-5.3-.08V89.2a3,3,0,0,0-3-3H91.71a3,3,0,0,1-3-3v-.88a3,3,0,0,1,3-3h21.8V72h-29a3,3,0,0,0-3,3.09V91.14a4.14,4.14,0,0,0,.7,1.59,6.1,6.1,0,0,0,1.77.79h19.24a3.07,3.07,0,0,1,3.09,3v1a3.11,3.11,0,0,1-3.09,3.09H81.47v7.24H111c1.69,0,2.56-.38,2.56-2,0,1.65.87,2.06,2.56,2h19.69c1.68,0,2.52-.36,2.56-2,0,1.67.84,2,2.47,2h26.14c1.63,0,2.48-.36,2.47-2,0,1.67.88,2,2.56,2h15.36a3,3,0,0,0,3-3V79.31h4.42a3.09,3.09,0,0,1,3.09,3v25.51h7.33V79.31h4.06a3,3,0,0,1,3,3v22.51a3,3,0,0,0,3.09,3h22.16v-7.24Zm-60.3-3.09a3,3,0,0,1-3,3.09H148.56a3,3,0,0,1-3-3.09v-1a2.94,2.94,0,0,1,3-3h10.69a2.94,2.94,0,0,1,3,3Z" transform="translate(-81.47 -56)"/><path class="cls-2" d="M239.26,103.63a2.26,2.26,0,1,1,2.26,2.32A2.24,2.24,0,0,1,239.26,103.63Zm2.26,2.78a2.78,2.78,0,1,0-2.82-2.78A2.77,2.77,0,0,0,241.52,106.41Zm-.59-2.56h.56l.85,1.39h.54l-.91-1.41a.84.84,0,0,0,.83-.89c0-.63-.38-.91-1.13-.91h-1.22v3.21h.48Zm0-.41v-1h.66c.34,0,.7.07.7.47s-.37.52-.78.52Z" transform="translate(-81.47 -56)"/></svg>