<svg id="Layer_1" data-name="Layer 1" xmlns="http://www.w3.org/2000/svg" viewBox="0 0 130.78 130.77"><defs><style>.cls-1{fill:#c41230;}.cls-2{fill:#fff;}</style></defs><rect class="cls-1" width="130.78" height="130.77"/><path class="cls-2" d="M79,60.11A10.54,10.54,0,0,0,72.46,62a5.43,5.43,0,0,0-2.52,4.4,5.24,5.24,0,0,0,2,4.21,20.92,20.92,0,0,0,4.89,3q2.94,1.32,6.32,2.54a36.27,36.27,0,0,1,6.31,3,17.52,17.52,0,0,1,4.9,4.32,10.47,10.47,0,0,1,1.94,6.51,12.74,12.74,0,0,1-1.64,6.38,14.94,14.94,0,0,1-4.67,5,22.83,22.83,0,0,1-7.23,3.13,37.71,37.71,0,0,1-9.39,1.09,39.71,39.71,0,0,1-8.35-.8,18.32,18.32,0,0,1-5.58-2c.57-1.62,1.07-3.11,1.47-4.46a42.37,42.37,0,0,0,1-4.39h1.64a8,8,0,0,0,1.3,2.89,9.89,9.89,0,0,0,2.42,2.41,11.88,11.88,0,0,0,3.55,1.64,17.24,17.24,0,0,0,4.67.59q5.2,0,7.66-2.09a6.37,6.37,0,0,0,2.47-5,5.51,5.51,0,0,0-1.91-4.33A19.19,19.19,0,0,0,79,87c-1.91-.86-4-1.7-6.24-2.51a34.72,34.72,0,0,1-6.23-3,16.78,16.78,0,0,1-4.76-4.29,10.61,10.61,0,0,1-1.9-6.51,12.6,12.6,0,0,1,1.6-6.41,14.47,14.47,0,0,1,4.28-4.67,20,20,0,0,1,6.19-2.86,27.55,27.55,0,0,1,7.4-1,32.6,32.6,0,0,1,8.18.91,20.63,20.63,0,0,1,6,2.51c-.52,1.07-1,2.1-1.34,3.1s-.85,2.27-1.43,3.8h-1.3q-2.76-6-10.46-6m61.87,13.77q4.23-9,7.61-17.18a20.91,20.91,0,0,0,7.62,0q-2.18,4.11-5.2,9.9t-6.31,12.26q-3.28,6.49-6.49,13.18t-5.72,12.54c-1.15-.09-2.41-.13-3.8-.13s-2.66,0-3.81.13c-.87-1.85-1.92-4.11-3.16-6.76s-2.57-5.46-4-8.43-2.9-6-4.45-9.13-3.06-6.12-4.51-9-2.79-5.61-4.06-8.12-2.37-4.65-3.29-6.41c1.33.09,2.64.18,3.94.24s2.58.11,3.85.11,2.54,0,3.81-.11,2.53-.15,3.8-.24c1,2.6,2.09,5.34,3.33,8.22s2.53,5.82,3.85,8.82,2.7,6,4.11,9,2.79,6,4.11,8.91q4.5-8.84,8.75-17.8" transform="translate(-42.33 -42.33)"/><path class="cls-2" d="M79.32,114.68a9.62,9.62,0,0,0-6.12,1.86,5.46,5.46,0,0,0-2.37,4.36,5.32,5.32,0,0,0,1.83,4.18A19.63,19.63,0,0,0,77.28,128c1.85.87,3.84,1.72,6,2.52a32.85,32.85,0,0,1,6,3,16.77,16.77,0,0,1,4.62,4.28,10.75,10.75,0,0,1,1.84,6.47,13,13,0,0,1-1.56,6.32,14.49,14.49,0,0,1-4.41,4.91,21.08,21.08,0,0,1-6.82,3.11A34.17,34.17,0,0,1,74,159.68a34.81,34.81,0,0,1-7.88-.8,16.47,16.47,0,0,1-5.27-2c.54-1.62,1-3.09,1.39-4.43a44.29,44.29,0,0,0,1-4.36h1.55A8.32,8.32,0,0,0,66,151a9.55,9.55,0,0,0,2.29,2.38A10.5,10.5,0,0,0,71.64,155a15.45,15.45,0,0,0,4.42.59q4.89,0,7.23-2.07a6.45,6.45,0,0,0,2.32-5,5.54,5.54,0,0,0-1.79-4.28,17.7,17.7,0,0,0-4.5-2.94c-1.79-.86-3.76-1.68-5.88-2.5a31.32,31.32,0,0,1-5.88-2.93,16.17,16.17,0,0,1-4.5-4.25,10.91,10.91,0,0,1-1.79-6.46,13,13,0,0,1,1.51-6.36,14,14,0,0,1,4-4.64,18.77,18.77,0,0,1,5.84-2.83,25,25,0,0,1,7-1,29.55,29.55,0,0,1,7.72.9,19.1,19.1,0,0,1,5.68,2.49c-.49,1.06-.91,2.09-1.27,3.07s-.8,2.25-1.34,3.78H89.21q-2.61-6-9.89-5.95m41.79,44.06a22.76,22.76,0,0,1-7.88-3.1A15.9,15.9,0,0,1,108,150a16.73,16.73,0,0,1-1.92-8.32c0-1.84,0-3.49,0-5s0-2.8,0-4,0-2.44,0-3.6,0-2.35,0-3.59q0-5.59-.07-9c-.06-2.31-.14-4-.25-5.19,1.09.09,2.2.18,3.35.25s2.26.1,3.35.1,2.21,0,3.35-.1,2.26-.16,3.34-.25q-.81,6.7-1,12.48c-.11,3.84-.17,7.76-.17,11.72a39.44,39.44,0,0,0,1.07,10.16,13.21,13.21,0,0,0,3.14,6,10.27,10.27,0,0,0,5.11,2.81,31.72,31.72,0,0,0,7,.69c3.28,0,5.83-.69,7.69-2.08a13,13,0,0,0,4.21-5.53,25.62,25.62,0,0,0,1.75-7.91q.33-4.46.33-9.3t-.17-9.5q-.17-4.74-.49-9.51c.77.09,1.5.18,2.21.25s1.36.1,2,.1,1.39,0,2-.1,1.34-.16,2.05-.25q-.17,1.51-.33,4.08t-.33,5.91c-.11,2.24-.2,4.7-.28,7.4s-.13,5.54-.13,8.54q0,12-6.12,17.24t-18,5.22a47.93,47.93,0,0,1-9.77-.94" transform="translate(-42.33 -42.33)"/></svg>