<svg id="Layer_1" data-name="Layer 1" xmlns="http://www.w3.org/2000/svg" viewBox="0 0 260.94 44.26"><defs><style>.cls-1{fill:#c41230;}.cls-2{fill:#fff;}.cls-3{fill:#0c4269;}</style></defs><rect class="cls-1" width="44.26" height="44.26"/><path class="cls-2" d="M27,54.6a3.61,3.61,0,0,0-2.2.64,1.86,1.86,0,0,0-.85,1.49,1.77,1.77,0,0,0,.66,1.42,7,7,0,0,0,1.66,1c.66.3,1.37.58,2.14.86a11.58,11.58,0,0,1,2.13,1,5.88,5.88,0,0,1,1.66,1.46,3.54,3.54,0,0,1,.66,2.21,4.29,4.29,0,0,1-.56,2.16,5,5,0,0,1-1.58,1.67,7.51,7.51,0,0,1-2.45,1.06,12.37,12.37,0,0,1-3.17.37,13.4,13.4,0,0,1-2.83-.27A6.34,6.34,0,0,1,20.36,69c.2-.55.36-1.06.5-1.51A13.64,13.64,0,0,0,21.21,66h.56a2.54,2.54,0,0,0,.44,1,3,3,0,0,0,.82.81,3.92,3.92,0,0,0,1.2.56,5.88,5.88,0,0,0,1.58.2,4,4,0,0,0,2.59-.71,2.14,2.14,0,0,0,.83-1.7,1.85,1.85,0,0,0-.64-1.46,6.41,6.41,0,0,0-1.61-1c-.64-.29-1.35-.58-2.11-.85a12.43,12.43,0,0,1-2.11-1,5.79,5.79,0,0,1-1.61-1.46,3.55,3.55,0,0,1-.64-2.2A4.29,4.29,0,0,1,21.05,56a4.76,4.76,0,0,1,1.45-1.58,6.59,6.59,0,0,1,2.09-1,9.33,9.33,0,0,1,2.51-.33,11,11,0,0,1,2.77.31,7.09,7.09,0,0,1,2,.85,9.2,9.2,0,0,0-.45,1.05L31,56.63h-.44a3.53,3.53,0,0,0-3.54-2m20.94,4.66c1-2,1.81-4,2.58-5.81a7.92,7.92,0,0,0,1.28.12,8,8,0,0,0,1.29-.12L51.32,56.8c-.69,1.3-1.4,2.69-2.14,4.15S47.7,63.9,47,65.41s-1.36,2.92-1.93,4.24c-.39,0-.82,0-1.29,0s-.9,0-1.29,0c-.29-.63-.65-1.39-1.07-2.28l-1.34-2.86c-.48-1-1-2-1.51-3.09L37,58.37c-.48-1-.94-1.9-1.37-2.75s-.8-1.58-1.11-2.17l1.33.08c.44,0,.87,0,1.3,0s.86,0,1.29,0l1.29-.08c.33.88.71,1.81,1.13,2.78s.85,2,1.3,3,.91,2,1.39,3.06.94,2,1.39,3c1-2,2-4,3-6" transform="translate(-14.59 -48.58)"/><path class="cls-2" d="M27.11,73.07A3.28,3.28,0,0,0,25,73.7a1.87,1.87,0,0,0-.8,1.48,1.82,1.82,0,0,0,.62,1.41,6.73,6.73,0,0,0,1.57,1c.62.29,1.3.58,2,.85a10.8,10.8,0,0,1,2,1A5.71,5.71,0,0,1,32,80.89a3.7,3.7,0,0,1,.62,2.19,4.41,4.41,0,0,1-.53,2.14,4.9,4.9,0,0,1-1.49,1.66,6.92,6.92,0,0,1-2.31,1.06,11.53,11.53,0,0,1-3,.36A12.06,12.06,0,0,1,22.64,88a5.74,5.74,0,0,1-1.78-.66c.18-.55.34-1.05.47-1.5a13.57,13.57,0,0,0,.33-1.48h.53a2.8,2.8,0,0,0,.41,1,3.11,3.11,0,0,0,.78.8,3.4,3.4,0,0,0,1.13.55,5.27,5.27,0,0,0,1.49.2,3.6,3.6,0,0,0,2.45-.7,2.21,2.21,0,0,0,.79-1.69,1.92,1.92,0,0,0-.61-1.45,6.24,6.24,0,0,0-1.52-1c-.61-.29-1.27-.57-2-.84a10.89,10.89,0,0,1-2-1,5.54,5.54,0,0,1-1.53-1.44,3.67,3.67,0,0,1-.6-2.18,4.48,4.48,0,0,1,.51-2.16,4.77,4.77,0,0,1,1.37-1.56,6.13,6.13,0,0,1,2-1,8.38,8.38,0,0,1,2.37-.33,10.13,10.13,0,0,1,2.61.3,6.52,6.52,0,0,1,1.92.85,10.79,10.79,0,0,0-.42,1c-.13.33-.28.76-.46,1.27h-.42a3.31,3.31,0,0,0-3.34-2M41.25,88a7.77,7.77,0,0,1-2.67-1A5.37,5.37,0,0,1,36.8,85a5.71,5.71,0,0,1-.65-2.82c0-.63,0-1.18,0-1.68s0-.94,0-1.36,0-.83,0-1.22,0-.8,0-1.22q0-1.89,0-3.06c0-.78,0-1.37-.08-1.76l1.13.09,1.13,0,1.14,0,1.13-.09a42.09,42.09,0,0,0-.33,4.23q-.06,1.95-.06,4a13.36,13.36,0,0,0,.36,3.44,4.45,4.45,0,0,0,1.07,2,3.36,3.36,0,0,0,1.73,1,10.42,10.42,0,0,0,2.37.24,4.23,4.23,0,0,0,2.6-.71,4.35,4.35,0,0,0,1.43-1.87,8.59,8.59,0,0,0,.59-2.68c.07-1,.11-2,.11-3.14s0-2.15,0-3.22-.1-2.14-.17-3.22L51,72l.66,0q.36,0,.69,0l.69-.09c0,.35-.07.81-.11,1.39s-.07,1.24-.11,2-.07,1.59-.09,2.51,0,1.87,0,2.89c0,2.71-.69,4.66-2.07,5.83s-3.41,1.77-6.08,1.77A15.76,15.76,0,0,1,41.25,88" transform="translate(-14.59 -48.58)"/><rect class="cls-1" x="51.42" y="24.96" width="206.98" height="0.91"/><path class="cls-3" d="M71.4,54.53a2.47,2.47,0,0,0-1.77.64,2,2,0,0,0-.69,1.5,2,2,0,0,0,.53,1.43,5.73,5.73,0,0,0,1.34,1c.54.3,1.12.59,1.73.86a9,9,0,0,1,1.73,1,5.22,5.22,0,0,1,1.34,1.47,4.15,4.15,0,0,1,.54,2.22,5.17,5.17,0,0,1-.45,2.17,4.71,4.71,0,0,1-1.28,1.68,5.9,5.9,0,0,1-2,1.07,8.64,8.64,0,0,1-2.58.37,8.8,8.8,0,0,1-2.28-.27A4.4,4.4,0,0,1,66.05,69c.15-.56.29-1.06.4-1.52s.2-1,.28-1.49h.45a3.4,3.4,0,0,0,.36,1,3,3,0,0,0,1.63,1.38,4,4,0,0,0,1.29.2,2.74,2.74,0,0,0,2.09-.72,2.38,2.38,0,0,0,.68-1.7,2.08,2.08,0,0,0-.52-1.47,5.06,5.06,0,0,0-1.31-1c-.52-.29-1.09-.58-1.7-.85a8.56,8.56,0,0,1-1.71-1,5.24,5.24,0,0,1-1.31-1.46,4.31,4.31,0,0,1-.52-2.22A5.21,5.21,0,0,1,66.6,56a4.86,4.86,0,0,1,1.18-1.59,5.15,5.15,0,0,1,1.69-1,6.22,6.22,0,0,1,2-.33,7.22,7.22,0,0,1,2.24.31,5.15,5.15,0,0,1,1.65.85c-.14.37-.27.72-.37,1.06l-.39,1.29h-.36A2.83,2.83,0,0,0,71.4,54.53Z" transform="translate(-14.59 -48.58)"/><path class="cls-3" d="M93.18,69.66c-.38,0-.74,0-1.08,0h-2c-.34,0-.68,0-1,0-.25-.78-.52-1.57-.78-2.37s-.56-1.62-.86-2.42l-1.52,0H83.17l-1.23,0c-.31.8-.61,1.61-.88,2.42s-.51,1.59-.73,2.37a3.64,3.64,0,0,0-.56,0H78.65a4.69,4.69,0,0,0-.62,0c.19-.41.44-1,.76-1.71s.66-1.55,1-2.46.79-1.9,1.22-3,.87-2.11,1.31-3.19l1.28-3.17c.42-1.05.8-2,1.15-2.92l.45.08a2.55,2.55,0,0,0,.9,0l.45-.08c.5,1.34,1,2.78,1.62,4.32s1.16,3,1.75,4.51,1.15,2.88,1.7,4.21S92.72,68.74,93.18,69.66ZM84.79,57.82c-.41,1-.8,1.89-1.16,2.82s-.72,1.87-1.07,2.83H86.9c-.35-1-.69-1.91-1-2.83S85.17,58.77,84.79,57.82Z" transform="translate(-14.59 -48.58)"/><path class="cls-3" d="M107.16,55.18a5.58,5.58,0,0,0-2.78-.65,5.43,5.43,0,0,0-2.17.46,5.49,5.49,0,0,0-1.92,1.39,7.24,7.24,0,0,0-1.36,2.31A9.22,9.22,0,0,0,98.41,62a8.48,8.48,0,0,0,.39,2.63,6.21,6.21,0,0,0,1.12,2.1,5,5,0,0,0,1.81,1.39,5.72,5.72,0,0,0,2.44.5,6.16,6.16,0,0,0,.7,0l.76-.08a4.19,4.19,0,0,0,.67-.13,1.71,1.71,0,0,0,.45-.18,4.49,4.49,0,0,0,.06-.71c0-.28,0-.6,0-1,0-1.28,0-2.22-.07-2.83s-.08-1-.09-1.25a5.55,5.55,0,0,0,.63.09c.26,0,.63,0,1.12,0s1,0,1.27,0a5.07,5.07,0,0,0,.65-.09,4.14,4.14,0,0,0-.08.62c0,.28,0,.61-.06,1s0,.77,0,1.19,0,.82,0,1.2v.78c0,.39,0,.76,0,1.1a4,4,0,0,0,0,.73,28.3,28.3,0,0,1-3.16.71,20.13,20.13,0,0,1-3.17.26,12.4,12.4,0,0,1-3.75-.54,8.42,8.42,0,0,1-3-1.56,7.25,7.25,0,0,1-1.94-2.49,7.46,7.46,0,0,1-.7-3.29,9.65,9.65,0,0,1,.75-3.94,7.76,7.76,0,0,1,2.06-2.83,8.87,8.87,0,0,1,3.12-1.69,12.77,12.77,0,0,1,3.88-.57,11.41,11.41,0,0,1,3.12.37,12.76,12.76,0,0,1,2.6,1l-.37,1.21a10.14,10.14,0,0,0-.29,1.21h-.34A6,6,0,0,0,107.16,55.18Z" transform="translate(-14.59 -48.58)"/><path class="cls-3" d="M115.38,56.44c0-1-.07-2-.14-3.07l.88.08c.31,0,.67,0,1.07,0s.75,0,1.06,0l.88-.08c-.06,1-.11,2.05-.14,3.07s0,2.19,0,3.5v3.22c0,1.31,0,2.48,0,3.5s.08,2,.14,3a7.89,7.89,0,0,0-.88,0h-2.13a7.89,7.89,0,0,0-.88,0c.07-1,.11-2,.14-3s.05-2.19.05-3.5V59.94C115.43,58.63,115.42,57.46,115.38,56.44Z" transform="translate(-14.59 -48.58)"/><path class="cls-3" d="M124.2,55.34c0-.75,0-1.4-.07-2a4.83,4.83,0,0,0,2.14,0q2.58,2.87,5.11,5.64t5.18,5.64V60.29c0-.77,0-1.54,0-2.28s0-1.45,0-2.08,0-1.18,0-1.64-.06-.76-.09-.92a6.3,6.3,0,0,0,1.07.12,6.4,6.4,0,0,0,1.07-.12c-.08,1.44-.15,2.74-.19,3.9s-.09,2.26-.12,3.28-.05,2.05-.06,3.05,0,2.07,0,3.21v2.85c-.32,0-.64,0-1,0a8.36,8.36,0,0,0-.92,0q-4.89-5.7-10.36-11.45c0,.45,0,.91,0,1.37s0,.93,0,1.4v2.75c0,1,0,1.76,0,2.42s0,1.22,0,1.68,0,.84,0,1.13,0,.52,0,.7a3.66,3.66,0,0,0-.57,0h-.54c-.37,0-.73,0-1.09,0q0-.19.12-1.35c0-.78.1-1.72.15-2.84s.1-2.32.14-3.62.06-2.56.06-3.76S124.24,56.08,124.2,55.34Z" transform="translate(-14.59 -48.58)"/><path class="cls-3" d="M156.53,69.66c-.38,0-.74,0-1.08,0h-2c-.34,0-.68,0-1,0q-.37-1.17-.78-2.37c-.27-.81-.56-1.62-.86-2.42l-1.51,0h-2.75l-1.24,0c-.31.8-.61,1.61-.87,2.42s-.52,1.59-.74,2.37a3.64,3.64,0,0,0-.56,0H142a4.69,4.69,0,0,0-.62,0c.19-.41.44-1,.76-1.71s.67-1.55,1-2.46.79-1.9,1.22-3,.87-2.11,1.31-3.19L147,56.17c.42-1.05.8-2,1.15-2.92l.45.08a2.55,2.55,0,0,0,.9,0l.45-.08c.51,1.34,1.05,2.78,1.63,4.32s1.15,3,1.74,4.51,1.15,2.88,1.7,4.21S156.07,68.74,156.53,69.66Zm-8.39-11.84c-.41,1-.8,1.89-1.16,2.82s-.72,1.87-1.07,2.83h4.34c-.35-1-.69-1.91-1-2.83S148.52,58.77,148.14,57.82Z" transform="translate(-14.59 -48.58)"/><path class="cls-3" d="M167,60.8l-1.1,3.07q-.56,1.56-1.08,3.09c-.35,1-.64,1.91-.9,2.7-.36,0-.76,0-1.21,0h-.61a4.32,4.32,0,0,0-.62,0c-.17-.65-.4-1.49-.69-2.51s-.59-2.12-.92-3.28-.67-2.32-1-3.5-.68-2.25-1-3.23-.56-1.82-.76-2.5-.34-1.11-.41-1.27l1,.08c.34,0,.66,0,1,0s.64,0,1,0l1-.08c.23,1,.49,2.05.76,3.12s.54,2.11.81,3.15l.81,3,.72,2.69h.05c.35-1,.72-2.07,1.13-3.23l1.17-3.42c.38-1.11.73-2.14,1-3.08s.56-1.69.74-2.24l.59.08a3.81,3.81,0,0,0,.59,0,3.86,3.86,0,0,0,.6,0l.59-.08a12.12,12.12,0,0,0,.36,1.4c.17.58.37,1.23.6,1.94s.47,1.46.74,2.25.52,1.58.78,2.35.5,1.51.72,2.21.4,1.3.55,1.82h0c.32-1,.66-2.09,1-3.29s.7-2.37,1-3.49l.9-3.08c.27-.93.46-1.64.57-2.11a5.24,5.24,0,0,0,1,.12,3.23,3.23,0,0,0,.53,0l.56-.08c-.11.3-.29.79-.52,1.47s-.52,1.48-.83,2.41-.66,1.93-1,3-.73,2.19-1.09,3.29-.72,2.19-1.06,3.25-.63,2-.89,2.85c-.36,0-.76,0-1.21,0h-.61a4.32,4.32,0,0,0-.62,0Q171,66.77,170,63.91t-2-5.82H168C167.66,58.89,167.34,59.8,167,60.8Z" transform="translate(-14.59 -48.58)"/><path class="cls-3" d="M198.94,59.21c.78-2,1.47-4,2.09-5.84a5.27,5.27,0,0,0,1,.12,5.45,5.45,0,0,0,1.05-.12l-1.43,3.36c-.55,1.32-1.13,2.71-1.73,4.18s-1.19,3-1.78,4.48-1.1,2.94-1.56,4.27c-.32,0-.67,0-1,0s-.73,0-1.05,0c-.24-.63-.53-1.4-.86-2.3l-1.09-2.87c-.39-1-.8-2-1.23-3.11s-.83-2.08-1.23-3.07-.77-1.91-1.11-2.76l-.9-2.18,1.07.08c.36,0,.71,0,1.06,0s.69,0,1,0l1.05-.08c.26.88.57,1.82.91,2.8l1,3c.37,1,.75,2,1.13,3.07s.76,2,1.13,3Q197.78,62.26,198.94,59.21Z" transform="translate(-14.59 -48.58)"/><path class="cls-3" d="M217.47,69.66c-.38,0-.73,0-1.07,0h-2c-.34,0-.68,0-1,0q-.37-1.17-.78-2.37c-.27-.81-.55-1.62-.85-2.42l-1.52,0h-2.75l-1.23,0c-.32.8-.61,1.61-.88,2.42s-.52,1.59-.74,2.37a3.51,3.51,0,0,0-.55,0h-1.13a4.69,4.69,0,0,0-.62,0c.19-.41.45-1,.76-1.71s.67-1.55,1-2.46.78-1.9,1.22-3l1.3-3.19,1.28-3.17c.42-1.05.8-2,1.15-2.92l.45.08a2.55,2.55,0,0,0,.9,0l.45-.08c.51,1.34,1.05,2.78,1.63,4.32s1.16,3,1.74,4.51S215.4,65,216,66.29,217,68.74,217.47,69.66Zm-8.39-11.84c-.41,1-.8,1.89-1.16,2.82s-.72,1.87-1.07,2.83h4.34c-.35-1-.69-1.91-1-2.83S209.46,58.77,209.08,57.82Z" transform="translate(-14.59 -48.58)"/><path class="cls-3" d="M221.24,56.44c0-1-.08-2-.14-3.07l.88.08c.32,0,.67,0,1.07,0s.75,0,1.06,0l.88-.08c-.06,1-.11,2.05-.14,3.07s0,2.19,0,3.5v3.22c0,.9,0,1.77,0,2.61s0,1.56,0,2.18c.9,0,1.8,0,2.7-.07s1.81-.13,2.73-.24c0,.18-.06.33-.07.48a5.82,5.82,0,0,0,0,1.18,1.53,1.53,0,0,0,.07.36l-1.58,0h-7.13l-.47,0c.06-1,.11-2,.14-3s0-2.19,0-3.5V59.94C221.29,58.63,221.28,57.46,221.24,56.44Z" transform="translate(-14.59 -48.58)"/><path class="cls-3" d="M234.47,56.44c0-1-.07-2-.14-3.07l.88.08c.32,0,.67,0,1.07,0s.75,0,1.07,0l.87-.08c-.06,1-.11,2.05-.14,3.07s-.05,2.19-.05,3.5v3.22c0,.9,0,1.77,0,2.61s0,1.56,0,2.18c.9,0,1.8,0,2.7-.07s1.81-.13,2.73-.24c0,.18,0,.33-.07.48a5.82,5.82,0,0,0,0,1.18,2.3,2.3,0,0,0,.07.36l-1.58,0H234.8l-.47,0c.07-1,.11-2,.14-3s.05-2.19.05-3.5V59.94C234.52,58.63,234.51,57.46,234.47,56.44Z" transform="translate(-14.59 -48.58)"/><path class="cls-3" d="M247.21,56.44c0-1-.06-2-.12-3.07l2.11.07c.7,0,1.4.05,2.11.05,1.17,0,2.21,0,3.12,0s1.52-.05,1.84-.08a3.82,3.82,0,0,0-.1,1c0,.26,0,.45,0,.6s0,.3.08.47l-1.51-.09-1.59-.1-1.39-.07-.87,0c-.07.87-.1,1.73-.11,2.58s0,1.72,0,2.58c1,0,2,0,2.79-.07l2.59-.11a6,6,0,0,0-.09.61,3.29,3.29,0,0,0,0,.45,2.58,2.58,0,0,0,0,.39c0,.14.05.33.08.58-1.8-.14-3.6-.21-5.38-.21,0,.51,0,1,0,1.52s0,1,0,1.52c0,1,0,2,.06,3,.91,0,1.81,0,2.71-.07s1.81-.13,2.73-.24c0,.18-.06.33-.08.48s0,.34,0,.59,0,.45,0,.59a1.49,1.49,0,0,0,.08.36l-1.58,0h-7.14l-.46,0q.09-1.47.12-3c0-1,0-2.19,0-3.5V59.94C247.25,58.63,247.24,57.46,247.21,56.44Z" transform="translate(-14.59 -48.58)"/><path class="cls-3" d="M268.15,58.93c.31-.58.62-1.18.92-1.81s.6-1.27.88-1.91.56-1.26.83-1.84l.54.08a3.31,3.31,0,0,0,.55,0,3.43,3.43,0,0,0,.56,0l.58-.08c-.27.44-.6,1-1,1.74l-1.29,2.34c-.46.84-.92,1.69-1.39,2.57s-.89,1.69-1.27,2.43c0,.38,0,.76,0,1.15s0,.78,0,1.17q0,1.22,0,2.4c0,.79.09,1.62.2,2.49-.33,0-.66,0-1,0h-2c-.34,0-.68,0-1,0,0-.73.09-1.47.17-2.23a21.77,21.77,0,0,0,.12-2.28c0-.36,0-.73,0-1.1s0-.74,0-1.1c-.39-.79-.85-1.67-1.36-2.64l-1.5-2.84q-.72-1.38-1.32-2.49c-.41-.74-.7-1.28-.89-1.61l1.06.08c.35,0,.71,0,1.07,0s.72,0,1.06,0l1.05-.08c.27.58.57,1.23.91,1.94s.68,1.41,1,2.09.64,1.3.93,1.85.51,1,.68,1.23h.05A17.55,17.55,0,0,0,268.15,58.93Z" transform="translate(-14.59 -48.58)"/><path class="cls-3" d="M69.25,79.06a1.51,1.51,0,0,0-1.06.38,1.24,1.24,0,0,0-.1,1.76,3.22,3.22,0,0,0,.81.6,8.4,8.4,0,0,0,1,.52,6.08,6.08,0,0,1,1,.62,3.06,3.06,0,0,1,.8.88,2.54,2.54,0,0,1,.32,1.33,3.09,3.09,0,0,1-.27,1.3,2.93,2.93,0,0,1-.77,1,3.49,3.49,0,0,1-1.19.64,4.94,4.94,0,0,1-1.54.22A5.28,5.28,0,0,1,67,88.16a2.59,2.59,0,0,1-.91-.41c.09-.33.17-.63.24-.91s.12-.57.17-.89h.27a2.19,2.19,0,0,0,.21.59,2.32,2.32,0,0,0,.4.49,1.83,1.83,0,0,0,.58.33,2.35,2.35,0,0,0,.77.12,1.68,1.68,0,0,0,1.26-.42,1.46,1.46,0,0,0,.41-1,1.25,1.25,0,0,0-.32-.88,3.06,3.06,0,0,0-.78-.61q-.47-.26-1-.51a5.55,5.55,0,0,1-1-.6,3.15,3.15,0,0,1-.78-.88,2.52,2.52,0,0,1-.31-1.33,3,3,0,0,1,.26-1.31,2.9,2.9,0,0,1,1.72-1.53,3.81,3.81,0,0,1,1.22-.2,4.48,4.48,0,0,1,1.34.18,3.3,3.3,0,0,1,1,.51c-.08.22-.15.44-.22.64l-.23.77H71A1.72,1.72,0,0,0,69.25,79.06Z" transform="translate(-14.59 -48.58)"/><path class="cls-3" d="M80.42,80a3.77,3.77,0,0,0,0-.49h-.52l-.67,0-.73,0-.68.08c0-.1,0-.21,0-.31s0-.21,0-.31,0-.22,0-.32,0-.21,0-.31l.88,0,.79,0h4l.78,0,.81,0c0,.1,0,.21,0,.31a1.66,1.66,0,0,0,0,.32,1.71,1.71,0,0,0,0,.31c0,.1,0,.21,0,.31l-.64-.08-.7,0-.66,0h-.53s0,.11,0,.2,0,.18,0,.29v4.31q0,1.18,0,2.1c0,.61,0,1.22.09,1.8a4.33,4.33,0,0,0-.53,0H80.84a4.45,4.45,0,0,0-.53,0c0-.58.07-1.19.09-1.8s0-1.31,0-2.1V80.74C80.43,80.46,80.43,80.21,80.42,80Z" transform="translate(-14.59 -48.58)"/><path class="cls-3" d="M99.11,88.19l-.64,0H97.26a6.08,6.08,0,0,0-.61,0l-.47-1.42c-.16-.48-.33-1-.51-1.45l-.91,0H93.11l-.74,0c-.19.48-.37,1-.53,1.45s-.31,1-.44,1.42a1.84,1.84,0,0,0-.33,0h-.68l-.37,0c.11-.24.27-.58.46-1s.39-.93.62-1.48.47-1.14.74-1.77L92.62,82c.26-.64.51-1.28.77-1.9l.69-1.75.27.05.27,0,.27,0,.27-.05c.3.81.63,1.67,1,2.59s.7,1.82,1.05,2.71.69,1.73,1,2.52S98.84,87.64,99.11,88.19Zm-5-7.1c-.25.57-.48,1.14-.7,1.69s-.43,1.12-.64,1.7h2.6c-.21-.58-.41-1.15-.62-1.7S94.3,81.66,94.08,81.09Z" transform="translate(-14.59 -48.58)"/><path class="cls-3" d="M107,80a3.77,3.77,0,0,0,0-.49h-.53l-.66,0-.73,0-.68.08c0-.1,0-.21.05-.31s0-.21,0-.31,0-.22,0-.32,0-.21-.05-.31l.87,0,.8,0H110l.77,0,.82,0c0,.1,0,.21,0,.31s0,.21,0,.32,0,.2,0,.31,0,.21,0,.31l-.64-.08-.7,0-.66,0h-.53a.88.88,0,0,0,0,.2,2.53,2.53,0,0,0,0,.29v4.31q0,1.18,0,2.1c0,.61.05,1.22.08,1.8a4.17,4.17,0,0,0-.52,0h-1.28a4.33,4.33,0,0,0-.53,0c0-.58.07-1.19.09-1.8s0-1.31,0-2.1V80Z" transform="translate(-14.59 -48.58)"/><path class="cls-3" d="M119.06,80.26c0-.61,0-1.22-.07-1.84l1.27,0c.41,0,.84,0,1.26,0l1.87,0c.55,0,.92,0,1.11,0a2.41,2.41,0,0,0-.06.6,4,4,0,0,0,.06.64l-.91-.06-1-.06-.83,0h-.53c0,.52-.06,1-.06,1.55s0,1,0,1.55l1.67,0,1.56-.07c0,.16,0,.29-.06.37a2.44,2.44,0,0,0,0,.27,1.94,1.94,0,0,0,0,.24c0,.08,0,.19,0,.35-1.08-.09-2.16-.13-3.23-.13,0,.3,0,.61,0,.91v.91c0,.62,0,1.21,0,1.78.54,0,1.08,0,1.62,0s1.09-.07,1.64-.14a4,4,0,0,0-.06.64,1.84,1.84,0,0,0,0,.36.6.6,0,0,0,0,.21l-1,0h-4.28l-.28,0c0-.58.06-1.19.07-1.8s0-1.31,0-2.1V82.36Q119.09,81.17,119.06,80.26Z" transform="translate(-14.59 -48.58)"/><path class="cls-3" d="M145.08,88.18a3.53,3.53,0,0,1-1.37-.64,3,3,0,0,1-.92-1.15,4,4,0,0,1-.33-1.71v-1c0-.3,0-.58,0-.83s0-.5,0-.74,0-.49,0-.74c0-.77,0-1.39,0-1.86s0-.83,0-1.07l.58,0,.59,0,.58,0,.58,0c-.09.92-.15,1.78-.17,2.57s0,1.59,0,2.41a9.73,9.73,0,0,0,.19,2.09,2.81,2.81,0,0,0,.55,1.23,1.64,1.64,0,0,0,.89.57,4.42,4.42,0,0,0,1.22.15,2,2,0,0,0,1.34-.43,2.65,2.65,0,0,0,.73-1.14,5.9,5.9,0,0,0,.31-1.63c0-.61.05-1.24.05-1.91s0-1.31,0-2,0-1.31-.08-2l.38,0,.34,0,.36,0,.36,0q0,.31-.06.84c0,.35,0,.75-.06,1.21s0,1-.05,1.53,0,1.14,0,1.75a4.86,4.86,0,0,1-1.07,3.55,4.2,4.2,0,0,1-3.13,1.08A7.14,7.14,0,0,1,145.08,88.18Z" transform="translate(-14.59 -48.58)"/><path class="cls-3" d="M158.67,79.6c0-.44,0-.84,0-1.18a2.92,2.92,0,0,0,1.27,0L163,81.8l3.11,3.39v-4c0-.45,0-.87,0-1.24s0-.71,0-1a3.65,3.65,0,0,0-.05-.55,3.6,3.6,0,0,0,.64.07,3.51,3.51,0,0,0,.64-.07c0,.86-.08,1.64-.11,2.34s-.05,1.35-.07,2,0,1.23,0,1.83v3.63a5.68,5.68,0,0,0-.59,0,4.44,4.44,0,0,0-.55,0q-2.94-3.41-6.22-6.87c0,.28,0,.55,0,.83s0,.55,0,.83v1.66c0,.57,0,1,0,1.45s0,.73,0,1,0,.5,0,.67,0,.32,0,.42a1.87,1.87,0,0,0-.34,0h-.33l-.65,0a7.79,7.79,0,0,0,.07-.81c0-.46.06-1,.09-1.7s.06-1.39.09-2.18,0-1.53,0-2.25S158.68,80,158.67,79.6Z" transform="translate(-14.59 -48.58)"/><path class="cls-3" d="M175.31,80.26c0-.61-.05-1.22-.09-1.84l.53,0,.64,0,.64,0,.53,0c0,.62-.07,1.23-.09,1.84s0,1.31,0,2.1v1.93c0,.79,0,1.49,0,2.1s.05,1.22.09,1.8a4.33,4.33,0,0,0-.53,0h-1.28a4.33,4.33,0,0,0-.53,0c0-.58.07-1.19.09-1.8s0-1.31,0-2.1V82.36Q175.34,81.17,175.31,80.26Z" transform="translate(-14.59 -48.58)"/><path class="cls-3" d="M190.92,81.93c.47-1.22.88-2.39,1.25-3.51a2.87,2.87,0,0,0,1.26,0l-.86,2c-.33.79-.68,1.62-1,2.5s-.71,1.78-1.06,2.69-.67,1.76-.94,2.56a6.05,6.05,0,0,0-.63,0,5.72,5.72,0,0,0-.62,0c-.15-.38-.32-.84-.52-1.38s-.43-1.11-.66-1.72-.48-1.23-.73-1.86l-.74-1.85L185,79.73c-.21-.52-.39-1-.54-1.31l.65,0,.63,0,.63,0,.62,0c.17.53.35,1.09.55,1.68s.42,1.18.63,1.8.45,1.22.68,1.84.46,1.22.67,1.82C190,84.36,190.46,83.14,190.92,81.93Z" transform="translate(-14.59 -48.58)"/><path class="cls-3" d="M200.09,80.26c0-.61,0-1.22-.07-1.84l1.26,0c.42,0,.84,0,1.27,0l1.87,0c.55,0,.91,0,1.1,0a3.12,3.12,0,0,0-.05.6,3.33,3.33,0,0,0,0,.35c0,.09,0,.18,0,.29l-.9-.06-1-.06-.84,0h-.52c0,.52-.06,1-.07,1.55v1.55l1.67,0,1.56-.07c0,.16-.05.29-.06.37a2.44,2.44,0,0,0,0,.27,1,1,0,0,0,0,.24c0,.08,0,.19.05.35-1.09-.09-2.16-.13-3.23-.13,0,.3,0,.61,0,.91s0,.6,0,.91c0,.62,0,1.21,0,1.78.55,0,1.09,0,1.63,0s1.08-.07,1.63-.14c0,.11,0,.2,0,.29a3.33,3.33,0,0,0,0,.35c0,.15,0,.27,0,.36a1,1,0,0,0,0,.21l-.94,0h-4.29l-.27,0c0-.58,0-1.19.07-1.8s0-1.31,0-2.1V82.36Q200.12,81.17,200.09,80.26Z" transform="translate(-14.59 -48.58)"/><path class="cls-3" d="M215.52,83.71v.58c0,.79,0,1.49,0,2.1s.05,1.22.09,1.8a4.33,4.33,0,0,0-.53,0h-1.28a4.45,4.45,0,0,0-.53,0c0-.58.07-1.19.09-1.8s0-1.31,0-2.1V82.36q0-1.19,0-2.1c0-.61,0-1.22-.09-1.84l.53,0,.64,0c.26,0,.55,0,.88,0s.73,0,1.21,0,.67,0,.93,0,.48,0,.66.08a2.27,2.27,0,0,1,.48.15,3.11,3.11,0,0,1,.4.22,2.29,2.29,0,0,1,.67.78,2.24,2.24,0,0,1,.25,1.1,2.47,2.47,0,0,1-.57,1.69,3.07,3.07,0,0,1-1.64.93c.46.8,1,1.61,1.47,2.41s1.05,1.59,1.57,2.38l-.64,0h-1.29c-.22,0-.43,0-.65,0l-2.55-4.48Zm2.12-3.61a1.09,1.09,0,0,0-.4-.56,1.35,1.35,0,0,0-.68-.25,7.15,7.15,0,0,0-1-.06c0,1.29,0,2.58,0,3.87l.16,0h.15a1.93,1.93,0,0,0,1.44-.51,2.08,2.08,0,0,0,.49-1.53A3.29,3.29,0,0,0,217.64,80.1Z" transform="translate(-14.59 -48.58)"/><path class="cls-3" d="M230.62,79.12a1.48,1.48,0,0,0-1.07.38,1.25,1.25,0,0,0-.09,1.76,3.41,3.41,0,0,0,.8.6c.32.18.67.35,1,.52a5.16,5.16,0,0,1,1,.61,3.2,3.2,0,0,1,.8.88,2.49,2.49,0,0,1,.32,1.34,3,3,0,0,1-.27,1.29,2.87,2.87,0,0,1-.77,1,3.44,3.44,0,0,1-1.18.64,5.37,5.37,0,0,1-1.55.22,5.19,5.19,0,0,1-1.37-.17,2.66,2.66,0,0,1-.92-.4c.09-.33.18-.64.24-.91s.12-.58.17-.9h.27a1.75,1.75,0,0,0,.22.59,1.69,1.69,0,0,0,.39.49,1.72,1.72,0,0,0,.59.34,2.26,2.26,0,0,0,.77.12,1.64,1.64,0,0,0,1.25-.43,1.4,1.4,0,0,0,.41-1,1.23,1.23,0,0,0-.31-.88,3.25,3.25,0,0,0-.78-.61,11,11,0,0,0-1-.51,5.2,5.2,0,0,1-1-.61,3,3,0,0,1-.79-.87,2.64,2.64,0,0,1-.31-1.33,3.19,3.19,0,0,1,.26-1.31,2.73,2.73,0,0,1,.71-1,3,3,0,0,1,1-.59,3.7,3.7,0,0,1,1.21-.2,4.27,4.27,0,0,1,1.35.19,3.09,3.09,0,0,1,1,.51c-.09.22-.16.43-.22.63s-.14.47-.24.78h-.21A1.7,1.7,0,0,0,230.62,79.12Z" transform="translate(-14.59 -48.58)"/><path class="cls-3" d="M241.32,80.26c0-.61,0-1.22-.09-1.84l.53,0,.64,0,.64,0,.53,0c0,.62-.07,1.23-.09,1.84s0,1.31,0,2.1v1.93q0,1.18,0,2.1c0,.61.05,1.22.09,1.8a4.45,4.45,0,0,0-.53,0h-1.28a4.33,4.33,0,0,0-.53,0c0-.58.07-1.19.09-1.8s0-1.31,0-2.1V82.36Q241.35,81.17,241.32,80.26Z" transform="translate(-14.59 -48.58)"/><path class="cls-3" d="M253.73,80a2.77,2.77,0,0,0,0-.49h-.53l-.67,0-.72,0-.69.08c0-.1,0-.21,0-.31a1.71,1.71,0,0,0,0-.31,1.66,1.66,0,0,0,0-.32c0-.1,0-.21,0-.31l.88,0,.8,0h4l.77,0,.82,0c0,.1,0,.21-.05.31s0,.21,0,.32,0,.2,0,.31,0,.21.05.31l-.64-.08-.71,0-.66,0h-.52a1.78,1.78,0,0,0,0,.2v4.6q0,1.18,0,2.1c0,.61,0,1.22.08,1.8a4.22,4.22,0,0,0-.53,0h-1.27a4.22,4.22,0,0,0-.53,0c0-.58.07-1.19.08-1.8s0-1.31,0-2.1V80.74C253.74,80.46,253.74,80.21,253.73,80Z" transform="translate(-14.59 -48.58)"/><path class="cls-3" d="M270.06,81.75c.19-.34.37-.71.55-1.08s.36-.77.53-1.15l.5-1.1.32,0,.33,0,.34,0,.35,0c-.17.26-.37.61-.61,1l-.78,1.41c-.27.5-.55,1-.83,1.54L270,83.87c0,.22,0,.45,0,.69s0,.46,0,.7c0,.49,0,1,0,1.44s.06,1,.13,1.49a6.08,6.08,0,0,0-.61,0H268.3q-.3,0-.6,0c0-.43.05-.88.1-1.33s.07-.92.07-1.37c0-.22,0-.44,0-.66s0-.45,0-.66c-.24-.48-.51-1-.82-1.59l-.9-1.7c-.29-.55-.55-1-.79-1.49s-.42-.77-.54-1l.64,0,.64,0,.64,0,.63,0c.16.35.34.74.55,1.16s.4.85.6,1.26.39.77.56,1.11.31.57.41.74h0C269.68,82.41,269.87,82.1,270.06,81.75Z" transform="translate(-14.59 -48.58)"/><path class="cls-3" d="M273.08,86.43a1.09,1.09,0,0,1,.27-.4,1.2,1.2,0,0,1,.41-.28,1.28,1.28,0,0,1,1,0,1.3,1.3,0,0,1,.41.28,1.23,1.23,0,0,1,.27.4,1.21,1.21,0,0,1,.1.5,1.18,1.18,0,0,1-.1.5,1.24,1.24,0,0,1-.68.67,1.18,1.18,0,0,1-.5.1,1.16,1.16,0,0,1-.49-.1,1,1,0,0,1-.41-.27,1,1,0,0,1-.27-.4,1.18,1.18,0,0,1-.1-.5A1.21,1.21,0,0,1,273.08,86.43Zm.13.95a1.13,1.13,0,0,0,.24.36,1.36,1.36,0,0,0,.36.25,1.12,1.12,0,0,0,.44.09,1.13,1.13,0,0,0,.45-.09,1.78,1.78,0,0,0,.36-.25,1,1,0,0,0,.23-.36,1.13,1.13,0,0,0,.09-.45,1.12,1.12,0,0,0-.09-.44,1.1,1.1,0,0,0-.23-.37,1.41,1.41,0,0,0-.36-.24,1.13,1.13,0,0,0-.45-.09,1.12,1.12,0,0,0-.44.09,1.13,1.13,0,0,0-.36.24,1.13,1.13,0,0,0-.32.81A1.33,1.33,0,0,0,273.21,87.38Zm.56-1a1.66,1.66,0,0,0,0-.24l.15,0h.43a.48.48,0,0,1,.18,0,.3.3,0,0,1,.14.06.35.35,0,0,1,.1.11.41.41,0,0,1,0,.16.3.3,0,0,1,0,.19.41.41,0,0,1-.12.14l-.16.08-.15,0,.15.2.18.23a1.93,1.93,0,0,0,.17.21.92.92,0,0,0,.13.14v0l-.08,0h-.06l-.14,0c-.08-.13-.18-.26-.27-.39l-.3-.38H274v.25a4.53,4.53,0,0,0,0,.52l-.12,0-.12,0c0-.09,0-.17,0-.25a2.18,2.18,0,0,0,0-.25V86.6A2.09,2.09,0,0,0,273.77,86.35Zm.25.5h.09l.18,0a.59.59,0,0,0,.14-.06.4.4,0,0,0,.1-.12.38.38,0,0,0,0-.16.27.27,0,0,0-.09-.22.36.36,0,0,0-.24-.08H274s0,.11,0,.17,0,.11,0,.16v.29Z" transform="translate(-14.59 -48.58)"/></svg>